HIERARCHY
ROOT Storm:Solving:Root
{
	OFFSET 0.000000 0.000000 0.000000
	CHANNELS 6 Xposition Yposition Zposition Xrotation Yrotation Zrotation
	JOINT Storm:Solving:L_Clav
	{
		OFFSET 0.000000 0.000000 0.000000
		CHANNELS 6 Xposition Yposition Zposition Xrotation Yrotation Zrotation
		JOINT Storm:Solving:L_Scapula_Joint
		{
			OFFSET 4.000000 0.000000 0.000000
			CHANNELS 6 Xposition Yposition Zposition Xrotation Yrotation Zrotation
			JOINT Storm:Solving:L_Shoulder_Joint
			{
				OFFSET 4.002680 -11.084217 10.770057
				CHANNELS 6 Xposition Yposition Zposition Xrotation Yrotation Zrotation
				JOINT Storm:Solving:L_Elbow_Joint
				{
					OFFSET 2.147804 -15.161016 -8.035206
					CHANNELS 6 Xposition Yposition Zposition Xrotation Yrotation Zrotation
					JOINT Storm:Solving:L_Wrist_Joint
					{
						OFFSET -2.240269 -20.029085 -9.040075
						CHANNELS 6 Xposition Yposition Zposition Xrotation Yrotation Zrotation
						JOINT Storm:Solving:L_Paw_Joint
						{
							OFFSET 0.706234 -5.721245 1.834930
							CHANNELS 6 Xposition Yposition Zposition Xrotation Yrotation Zrotation
							JOINT Storm:Solving:NewBone_4
							{
								OFFSET 1.343818 -3.510090 4.244948
								CHANNELS 6 Xposition Yposition Zposition Xrotation Yrotation Zrotation
								End Site
								{
									OFFSET 5.410949 0.263100 -1.672891
								}
							}
						}
					}
				}
			}
		}
	}
	JOINT Storm:Solving:R_Clav
	{
		OFFSET 0.000000 0.000000 0.000000
		CHANNELS 6 Xposition Yposition Zposition Xrotation Yrotation Zrotation
		JOINT Storm:Solving:R_Scapula_Joint
		{
			OFFSET -4.000000 -0.000000 0.000001
			CHANNELS 6 Xposition Yposition Zposition Xrotation Yrotation Zrotation
			JOINT Storm:Solving:NewBone_3
			{
				OFFSET -4.614829 -11.686039 9.889529
				CHANNELS 6 Xposition Yposition Zposition Xrotation Yrotation Zrotation
				JOINT Storm:Solving:R_Elbow_Joint
				{
					OFFSET -0.160743 -16.404385 -5.491840
					CHANNELS 6 Xposition Yposition Zposition Xrotation Yrotation Zrotation
					JOINT Storm:Solving:R_Wrist_Joint
					{
						OFFSET 2.412016 -21.935680 1.190893
						CHANNELS 6 Xposition Yposition Zposition Xrotation Yrotation Zrotation
						JOINT Storm:Solving:R_Paw_Joint
						{
							OFFSET -0.535018 -3.351765 3.806499
							CHANNELS 6 Xposition Yposition Zposition Xrotation Yrotation Zrotation
							JOINT Storm:Solving:NewBone_5
							{
								OFFSET -0.877549 -2.975662 5.252175
								CHANNELS 6 Xposition Yposition Zposition Xrotation Yrotation Zrotation
								End Site
								{
									OFFSET 5.926299 0.585030 1.321637
								}
							}
						}
					}
				}
			}
		}
	}
	JOINT Storm:Solving:Root_To_Spine_Dummy
	{
		OFFSET 0.000000 0.000000 0.000000
		CHANNELS 6 Xposition Yposition Zposition Xrotation Yrotation Zrotation
		JOINT Storm:Solving:Spine1
		{
			OFFSET 0.000000 0.000000 -3.827275
			CHANNELS 6 Xposition Yposition Zposition Xrotation Yrotation Zrotation
			JOINT Storm:Solving:Spine2
			{
				OFFSET 0.000001 0.000000 -16.939260
				CHANNELS 6 Xposition Yposition Zposition Xrotation Yrotation Zrotation
				JOINT Storm:Solving:Spine3
				{
					OFFSET 0.000002 0.000000 -14.393892
					CHANNELS 6 Xposition Yposition Zposition Xrotation Yrotation Zrotation
					JOINT Storm:Solving:Pelvis_Root
					{
						OFFSET 0.000002 0.000000 -14.393890
						CHANNELS 6 Xposition Yposition Zposition Xrotation Yrotation Zrotation
						JOINT Storm:Solving:L_Pelvis
						{
							OFFSET 0.000000 0.000000 0.000000
							CHANNELS 6 Xposition Yposition Zposition Xrotation Yrotation Zrotation
							JOINT Storm:Solving:LFemur_Joint
							{
								OFFSET 8.318080 -6.780918 -6.728058
								CHANNELS 6 Xposition Yposition Zposition Xrotation Yrotation Zrotation
								JOINT Storm:Solving:LTibia_Joint
								{
									OFFSET 4.762119 -18.232958 12.109562
									CHANNELS 6 Xposition Yposition Zposition Xrotation Yrotation Zrotation
									JOINT Storm:Solving:LAnkle_Joint
									{
										OFFSET 1.748854 -18.426313 -12.690502
										CHANNELS 6 Xposition Yposition Zposition Xrotation Yrotation Zrotation
										JOINT Storm:Solving:LFoot_Joint
										{
											OFFSET 2.893215 -10.324425 3.420891
											CHANNELS 6 Xposition Yposition Zposition Xrotation Yrotation Zrotation
											JOINT Storm:Solving:LFoot_End
											{
												OFFSET 3.317142 -1.153622 6.178677
												CHANNELS 6 Xposition Yposition Zposition Xrotation Yrotation Zrotation
												End Site
												{
													OFFSET 6.285072 0.685661 -3.246243
												}
											}
										}
									}
								}
							}
						}
						JOINT Storm:Solving:R_Pelvis
						{
							OFFSET 0.000000 0.000000 0.000000
							CHANNELS 6 Xposition Yposition Zposition Xrotation Yrotation Zrotation
							JOINT Storm:Solving:RFemur_Joint
							{
								OFFSET -8.082922 -7.104603 -6.553699
								CHANNELS 6 Xposition Yposition Zposition Xrotation Yrotation Zrotation
								JOINT Storm:Solving:RTibia_Joint
								{
									OFFSET -3.034004 -18.950596 11.551186
									CHANNELS 6 Xposition Yposition Zposition Xrotation Yrotation Zrotation
									JOINT Storm:Solving:RAnkle_Joint
									{
										OFFSET 0.163292 -19.936810 -10.210636
										CHANNELS 6 Xposition Yposition Zposition Xrotation Yrotation Zrotation
										JOINT Storm:Solving:RFoot_Joint
										{
											OFFSET -0.793680 -9.967937 0.101715
											CHANNELS 6 Xposition Yposition Zposition Xrotation Yrotation Zrotation
											JOINT Storm:Solving:RFoot_End
											{
												OFFSET -4.434014 -1.490955 4.525612
												CHANNELS 6 Xposition Yposition Zposition Xrotation Yrotation Zrotation
												End Site
												{
													OFFSET -4.697033 0.328136 -4.493862
												}
											}
										}
									}
								}
							}
						}
					}
				}
			}
		}
	}
	JOINT Storm:Solving:Root_To_Neck
	{
		OFFSET 0.000000 0.000000 0.000000
		CHANNELS 6 Xposition Yposition Zposition Xrotation Yrotation Zrotation
		JOINT Storm:Solving:Neck1
		{
			OFFSET 0.000000 4.185541 5.729186
			CHANNELS 6 Xposition Yposition Zposition Xrotation Yrotation Zrotation
			JOINT Storm:Solving:Neck2
			{
				OFFSET 2.125778 5.862305 7.100437
				CHANNELS 6 Xposition Yposition Zposition Xrotation Yrotation Zrotation
				JOINT Storm:Solving:Head
				{
					OFFSET -4.381103 5.689912 1.801980
					CHANNELS 6 Xposition Yposition Zposition Xrotation Yrotation Zrotation
					JOINT Storm:Solving:Head_End
					{
						OFFSET -9.753127 2.579648 15.562063
						CHANNELS 6 Xposition Yposition Zposition Xrotation Yrotation Zrotation
						End Site
						{
							OFFSET -4.085257 17.259090 -5.421284
						}
					}
				}
			}
		}
	}
	JOINT Storm:Solving:R_Clav_1
	{
		OFFSET 0.000000 0.000000 0.000000
		CHANNELS 6 Xposition Yposition Zposition Xrotation Yrotation Zrotation
		End Site
		{
			OFFSET 0.000000 0.010000 -0.000000
		}
	}
}
MOTION
Frames: 4
Frame Time: 0.008333
-4.198914 58.731300 -206.899734 -4.762964 -7.751715 -1.444961 -0.000000 0.000001 0.000016 2.847555 -0.536553 -10.662146 3.999995 -0.000004 0.000001 3.782741 -3.635112 11.789416 4.002681 -11.084221 10.770040 -4.409483 1.452751 -1.894317 2.147805 -15.160995 -8.035226 -11.404042 14.026872 16.352815 -2.240271 -20.029083 -9.040086 10.831828 7.224362 1.343726 0.706236 -5.721234 1.834916 -1.091404 -0.056287 0.336951 1.343811 -3.510067 4.244919 0.000007 0.000002 0.000000 -0.000000 0.000001 0.000016 4.136667 0.940737 12.789910 -4.000002 -0.000012 -0.000005 4.142012 -4.274428 -21.832049 -4.614826 -11.686048 9.889513 2.193727 -0.361110 3.523599 -0.160743 -16.404387 -5.491824 3.168481 0.335156 -0.168185 2.412018 -21.935680 1.190875 4.794073 3.730333 4.180115 -0.535020 -3.351767 3.806486 -8.341291 -0.684413 -1.910687 -0.877554 -2.975663 5.252170 0.000001 0.000001 0.000001 -0.000000 0.000001 0.000016 0.000001 -0.000000 -0.000000 0.000001 0.000004 -3.827271 -0.107276 -4.252588 -0.811524 0.000002 0.000003 -16.939241 7.392201 17.080848 -43.543747 0.000001 -0.000003 -14.393875 3.004335 -23.087725 52.332271 0.000001 -0.000005 -14.393872 3.011816 7.353851 -19.661135 -0.000001 0.000010 0.000000 -0.000001 0.000000 0.000001 8.318084 -6.780924 -6.728074 -7.981317 9.219649 7.603221 4.762128 -18.232956 12.109581 -3.169715 -0.713786 0.556887 1.748853 -18.426315 -12.690501 -14.017155 -2.462448 6.840985 2.893218 -10.324421 3.420887 19.204260 0.408481 -10.037751 3.317144 -1.153627 6.178687 0.000004 0.000001 -0.000001 0.000004 0.000015 0.000004 0.000000 0.000001 -0.000002 -8.082950 -7.104582 -6.553703 7.013751 5.891310 -2.422583 -3.034004 -18.950575 11.551185 8.774677 -0.567720 1.520219 0.163301 -19.936810 -10.210646 1.461902 0.100766 4.990938 -0.793654 -9.967937 0.101731 2.890661 -0.131963 2.765956 -4.434020 -1.490956 4.525624 -0.000000 -0.000001 -0.000000 -0.000000 0.000001 0.000016 0.000007 -0.000001 -0.000000 -0.000003 4.185548 5.729214 -9.705920 5.477696 -0.424463 2.125772 5.862292 7.100438 9.328783 7.678587 -12.467389 -4.381103 5.689912 1.801968 -12.147743 -9.365946 7.805621 -9.753123 2.579639 15.562046 -0.000005 0.000000 0.000001 -0.000000 0.000001 0.000016 0.000001 -0.000000 -0.000000 
-4.198914 58.731300 -206.899734 -4.762964 -7.751715 -1.444961 -0.000000 0.000001 0.000016 2.847555 -0.536553 -10.662146 3.999995 -0.000004 0.000001 3.782741 -3.635112 11.789416 4.002681 -11.084221 10.770040 -4.409483 1.452751 -1.894317 2.147805 -15.160995 -8.035226 -11.404042 14.026872 16.352815 -2.240271 -20.029083 -9.040086 10.831828 7.224362 1.343726 0.706236 -5.721234 1.834916 -1.091404 -0.056287 0.336951 1.343811 -3.510067 4.244919 0.000007 0.000002 0.000000 -0.000000 0.000001 0.000016 4.136667 0.940737 12.789910 -4.000002 -0.000012 -0.000005 4.142012 -4.274428 -21.832049 -4.614826 -11.686048 9.889513 2.193727 -0.361110 3.523599 -0.160743 -16.404387 -5.491824 3.168481 0.335156 -0.168185 2.412018 -21.935680 1.190875 4.794073 3.730333 4.180115 -0.535020 -3.351767 3.806486 -8.341291 -0.684413 -1.910687 -0.877554 -2.975663 5.252170 0.000001 0.000001 0.000001 -0.000000 0.000001 0.000016 0.000001 -0.000000 -0.000000 0.000001 0.000004 -3.827271 -0.107276 -4.252588 -0.811524 0.000002 0.000003 -16.939241 7.392201 17.080848 -43.543747 0.000001 -0.000003 -14.393875 3.004335 -23.087725 52.332271 0.000001 -0.000005 -14.393872 3.011816 7.353851 -19.661135 -0.000001 0.000010 0.000000 -0.000001 0.000000 0.000001 8.318084 -6.780924 -6.728074 -7.981317 9.219649 7.603221 4.762128 -18.232956 12.109581 -3.169715 -0.713786 0.556887 1.748853 -18.426315 -12.690501 -14.017155 -2.462448 6.840985 2.893218 -10.324421 3.420887 19.204260 0.408481 -10.037751 3.317144 -1.153627 6.178687 0.000004 0.000001 -0.000001 0.000004 0.000015 0.000004 0.000000 0.000001 -0.000002 -8.082950 -7.104582 -6.553703 7.013751 5.891310 -2.422583 -3.034004 -18.950575 11.551185 8.774677 -0.567720 1.520219 0.163301 -19.936810 -10.210646 1.461902 0.100766 4.990938 -0.793654 -9.967937 0.101731 2.890661 -0.131963 2.765956 -4.434020 -1.490956 4.525624 -0.000000 -0.000001 -0.000000 -0.000000 0.000001 0.000016 0.000007 -0.000001 -0.000000 -0.000003 4.185548 5.729214 -9.705920 5.477696 -0.424463 2.125772 5.862292 7.100438 9.328783 7.678587 -12.467389 -4.381103 5.689912 1.801968 -12.147743 -9.365946 7.805621 -9.753123 2.579639 15.562046 -0.000005 0.000000 0.000001 -0.000000 0.000001 0.000016 0.000001 -0.000000 -0.000000 
-4.215485 58.734020 -206.907990 -4.762331 -7.796751 -1.439428 -0.000001 0.000007 -0.000009 2.847121 -0.536448 -10.661709 3.999996 0.000002 0.000012 3.772549 -3.600823 11.757398 4.002672 -11.084207 10.770039 -4.448349 1.434742 -1.862011 2.147801 -15.161013 -8.035212 -11.353026 14.055997 16.392877 -2.240267 -20.029091 -9.040073 10.846245 7.204011 1.300914 0.706234 -5.721248 1.834901 -1.109915 -0.057295 0.342656 1.343818 -3.510090 4.244949 0.000007 0.000001 -0.000001 -0.000001 0.000007 -0.000009 4.132181 0.937846 12.765322 -3.999997 -0.000006 0.000025 4.126838 -4.305732 -21.809433 -4.614822 -11.686040 9.889550 2.174675 -0.349868 3.537314 -0.160751 -16.404383 -5.491849 3.187340 0.337121 -0.169240 2.412010 -21.935684 1.190937 4.684500 3.786411 4.129573 -0.535024 -3.351758 3.806507 -8.170416 -0.673222 -1.870661 -0.877546 -2.975667 5.252158 0.000001 -0.000001 0.000001 -0.000001 0.000007 -0.000009 0.000000 -0.000001 0.000000 -0.000003 0.000010 -3.827296 -0.117402 -4.255811 -0.807517 -0.000005 0.000007 -16.939268 7.394671 17.111581 -43.552090 -0.000000 -0.000002 -14.393907 3.004446 -23.062894 52.329774 0.000008 0.000000 -14.393889 3.000941 7.343741 -19.671875 -0.000006 -0.000006 0.000031 -0.000003 0.000005 -0.000002 8.318078 -6.780943 -6.728047 -7.972851 9.196981 7.613685 4.762125 -18.232952 12.109548 -3.163552 -0.712366 0.555840 1.748859 -18.426323 -12.690510 -14.066434 -2.473185 6.879220 2.893213 -10.324414 3.420909 19.330491 0.400000 -10.103595 3.317129 -1.153628 6.178682 0.000002 0.000004 0.000001 -0.000001 -0.000000 0.000031 -0.000001 0.000001 -0.000000 -8.082924 -7.104619 -6.553690 7.018746 5.926165 -2.411080 -3.034010 -18.950609 11.551207 8.752624 -0.566591 1.516301 0.163292 -19.936813 -10.210657 1.472918 0.102371 5.022487 -0.793679 -9.967939 0.101730 2.862415 -0.131345 2.738927 -4.434017 -1.490966 4.525637 -0.000003 0.000003 0.000000 -0.000001 0.000007 -0.000009 -0.000002 -0.000000 -0.000000 0.000002 4.185546 5.729168 -9.693587 5.494332 -0.440999 2.125774 5.862329 7.100425 9.401632 7.708557 -12.440944 -4.381104 5.689918 1.801967 -12.254024 -9.296518 7.849964 -9.753121 2.579655 15.562056 0.000002 0.000003 -0.000001 -0.000001 0.000007 -0.000009 0.000000 -0.000000 0.000000 
-4.233628 58.737617 -206.918030 -4.770936 -7.828268 -1.438912 0.000000 0.000005 -0.000028 2.847638 -0.538287 -10.695531 4.000003 -0.000002 0.000020 3.778861 -3.631308 11.769505 4.002675 -11.084208 10.770058 -4.481648 1.491521 -1.792931 2.147811 -15.160995 -8.035200 -11.265952 13.981435 16.352523 -2.240271 -20.029085 -9.040078 10.846548 7.315382 1.304725 0.706239 -5.721252 1.834932 -1.066442 -0.054927 0.329255 1.343816 -3.510074 4.244926 0.000005 0.000001 0.000001 0.000000 0.000005 -0.000028 4.138601 0.941015 12.787748 -4.000000 -0.000012 -0.000016 4.137068 -4.308079 -21.841352 -4.614820 -11.686039 9.889532 2.157495 -0.348893 3.574787 -0.160746 -16.404388 -5.491835 3.153344 0.333578 -0.167338 2.412017 -21.935686 1.190909 4.836589 3.819333 4.136265 -0.535028 -3.351741 3.806489 -8.402635 -0.688401 -1.925066 -0.877554 -2.975674 5.252154 -0.000001 0.000000 0.000000 0.000000 0.000005 -0.000028 0.000000 -0.000000 -0.000000 -0.000001 0.000006 -3.827300 -0.114446 -4.270035 -0.797858 0.000002 0.000002 -16.939249 7.403072 17.134814 -43.559975 0.000002 -0.000006 -14.393906 2.991761 -23.058944 52.331912 0.000000 0.000000 -14.393916 3.002331 7.355450 -19.684663 0.000007 0.000002 -0.000011 -0.000004 -0.000001 -0.000000 8.318077 -6.780904 -6.728084 -7.988689 9.240946 7.605621 4.762117 -18.232975 12.109556 -3.176731 -0.715398 0.558077 1.748847 -18.426321 -12.690489 -14.013480 -2.462177 6.829793 2.893210 -10.324427 3.420893 19.200816 0.408713 -10.035950 3.317129 -1.153619 6.178651 0.000003 0.000004 0.000002 0.000012 0.000008 -0.000011 -0.000001 0.000006 -0.000003 -8.082918 -7.104614 -6.553701 7.030011 5.926171 -2.406096 -3.034005 -18.950579 11.551147 8.751906 -0.566555 1.516175 0.163299 -19.936829 -10.210654 1.415085 0.096988 4.901319 -0.793682 -9.967945 0.101691 2.941704 -0.133032 2.814802 -4.434015 -1.490964 4.525640 -0.000001 0.000001 -0.000000 0.000000 0.000005 -0.000028 -0.000002 0.000000 0.000000 0.000001 4.185529 5.729195 -9.671884 5.506639 -0.458856 2.125782 5.862307 7.100452 9.516118 7.753580 -12.362178 -4.381105 5.689919 1.801962 -12.404203 -9.239445 7.814087 -9.753126 2.579628 15.562075 0.000001 0.000001 0.000001 0.000000 0.000005 -0.000028 0.000000 0.000001 -0.000000 
